<svg xmlns="http://www.w3.org/2000/svg" width="29.571" height="29.571" viewBox="0 0 29.571 29.571">
  <g id="Icons" transform="translate(0 0)" opacity="0.505">
    <g id="Black" transform="translate(0 0)">
      <path id="Facebook" d="M215.795,189.571H201.633A1.633,1.633,0,0,1,200,187.938V161.633A1.632,1.632,0,0,1,201.634,160H227.94a1.632,1.632,0,0,1,1.632,1.633v26.306a1.633,1.633,0,0,1-1.632,1.633H220.4V178.12h3.844l.575-4.463H220.4v-2.849c0-1.293.359-2.173,2.212-2.173h2.363v-3.991a31.662,31.662,0,0,0-3.444-.176c-3.407,0-5.74,2.08-5.74,5.9v3.292h-3.854v4.463H215.8v11.451Z" transform="translate(-200.001 -160)" fill="#01097e" fill-rule="evenodd"/>
    </g>
  </g>
</svg>
