<svg xmlns="http://www.w3.org/2000/svg" width="29.906" height="29.906" viewBox="0 0 29.906 29.906">
  <g id="Group_41" data-name="Group 41" opacity="0.505">
    <path id="Path_3" data-name="Path 3" d="M20.561,0H9.346A9.346,9.346,0,0,0,0,9.346V20.561a9.346,9.346,0,0,0,9.346,9.346H20.561a9.346,9.346,0,0,0,9.346-9.346V9.346A9.346,9.346,0,0,0,20.561,0ZM27.1,20.561A6.549,6.549,0,0,1,20.561,27.1H9.346A6.549,6.549,0,0,1,2.8,20.561V9.346A6.549,6.549,0,0,1,9.346,2.8H20.561A6.549,6.549,0,0,1,27.1,9.346Z" transform="translate(0 0)" fill="#01097e"/>
    <path id="Path_4" data-name="Path 4" d="M11.477,4a7.477,7.477,0,1,0,7.477,7.477A7.477,7.477,0,0,0,11.477,4Zm0,12.149a4.673,4.673,0,1,1,4.673-4.673A4.678,4.678,0,0,1,11.477,16.149Z" transform="translate(3.477 3.477)" fill="#01097e"/>
    <ellipse id="Ellipse_1" data-name="Ellipse 1" cx="0.996" cy="0.996" rx="0.996" ry="0.996" transform="translate(21.994 5.92)" fill="#01097e"/>
  </g>
</svg>
