<svg xmlns="http://www.w3.org/2000/svg" width="30.823" height="29.461" viewBox="0 0 30.823 29.461">
  <path id="Flat_copy" d="M30.823,30.167V18.77c0-6.107-3.26-8.948-7.606-8.948a6.556,6.556,0,0,0-5.955,3.284V10.289H10.655c.088,1.866,0,19.878,0,19.878h6.608v-11.1a4.5,4.5,0,0,1,.218-1.61,3.614,3.614,0,0,1,3.389-2.417c2.392,0,3.347,1.822,3.347,4.494V30.168h6.607ZM3.694,7.576A3.445,3.445,0,1,0,3.738.707a3.444,3.444,0,1,0-.086,6.869ZM7,30.167V10.289H.391V30.167Z" transform="translate(0 -0.707)" fill="#01097e" opacity="0.505"/>
</svg>
